<?xml version="1.0" encoding="UTF-8"?>
<svg version="1.1" xmlns="http://www.w3.org/2000/svg" width="128" height="128">
<path d="M0 0 C0.43828125 0.36351562 0.8765625 0.72703125 1.328125 1.1015625 C5.38788533 4.3196652 9.34569069 6.71535398 14.0625 8.875 C22.74190849 13.09978143 26.94730013 18.65382078 30.2734375 27.60546875 C33.7249006 38.98045199 31.80460154 48.71082176 28.3125 59.71484375 C25.14684693 69.69604278 25.14684693 69.69604278 24 80 C24.99 80 25.98 80 27 80 C27 81.32 27 82.64 27 84 C27.928125 84.185625 27.928125 84.185625 28.875 84.375 C31 85 31 85 33 87 C33.265625 89.93359375 33.265625 89.93359375 33.25 93.4375 C33.25773437 95.16806641 33.25773437 95.16806641 33.265625 96.93359375 C33 100 33 100 31 103 C28.68493652 103.3742218 28.68493652 103.3742218 25.75585938 103.37231445 C24.11405701 103.38165764 24.11405701 103.38165764 22.43908691 103.39118958 C21.25262573 103.38197983 20.06616455 103.37277008 18.84375 103.36328125 C17.63054077 103.36377975 16.41733154 103.36427826 15.1673584 103.36479187 C12.59837204 103.3624479 10.02938354 103.35270057 7.46044922 103.33618164 C3.51639382 103.31259803 -0.42698584 103.31561742 -4.37109375 103.32226562 C-6.86198322 103.31668898 -9.35286983 103.30957918 -11.84375 103.30078125 C-13.62344177 103.30214836 -13.62344177 103.30214836 -15.43908691 103.30354309 C-16.53362183 103.29401108 -17.62815674 103.28447906 -18.75585938 103.2746582 C-19.72245483 103.27005081 -20.68905029 103.26544342 -21.68493652 103.26069641 C-24 103 -24 103 -26 101 C-26.14497985 98.41935871 -26.18677545 95.95056116 -26.125 93.375 C-26.11597656 92.66859375 -26.10695313 91.9621875 -26.09765625 91.234375 C-26.07407603 89.48943902 -26.03820461 87.74467705 -26 86 C-25.19175781 85.71382813 -24.38351563 85.42765625 -23.55078125 85.1328125 C-22.70902344 84.75898437 -21.86726563 84.38515625 -21 84 C-20.11306697 81.95894361 -20.11306697 81.95894361 -20 80 C-19.01 80 -18.02 80 -17 80 C-17.08121094 79.44054687 -17.16242187 78.88109375 -17.24609375 78.3046875 C-18.00949609 68.61415173 -13.48566366 60.37694899 -7.6015625 52.98828125 C-6.07182225 51.29269537 -4.51342556 49.6221828 -2.91796875 47.98828125 C-0.83819873 45.95060461 -0.83819873 45.95060461 1 43 C-7.99879537 41.50348416 -7.99879537 41.50348416 -16.375 43.9375 C-17.674375 44.9584375 -17.674375 44.9584375 -19 46 C-22.85345581 46.58137244 -26.29293834 46.23568722 -30 45 C-31.875 42.9375 -31.875 42.9375 -33 40 C-31.55939889 31.64451355 -25.06471672 26.42536405 -19 21 C-18.01 20.34 -17.02 19.68 -16 19 C-15.27034634 16.43717258 -15.27034634 16.43717258 -15 14 C-14.36191406 13.82984375 -13.72382812 13.6596875 -13.06640625 13.484375 C-12.24011719 13.24203125 -11.41382812 12.9996875 -10.5625 12.75 C-9.73878906 12.51796875 -8.91507813 12.2859375 -8.06640625 12.046875 C-5.80004532 11.19229321 -5.80004532 11.19229321 -5.21484375 8.890625 C-5.14394531 8.26671875 -5.07304688 7.6428125 -5 7 C-3.35 6.67 -1.7 6.34 0 6 C0 4.02 0 2.04 0 0 Z " fill="#D82731" transform="translate(64,13)"/>
</svg>
