<svg xmlns="http://www.w3.org/2000/svg" version="1.1" xmlns:xlink="http://www.w3.org/1999/xlink" xmlns:svgjs="http://svgjs.dev/svgjs" width="1500" height="1500" viewBox="0 0 1500 1500"><rect width="1500" height="1500" fill="#5d9096"></rect><g transform="matrix(0.6666666666666666,0,0,0.6666666666666666,249.39393939393938,519.6911613730999)"><svg viewBox="0 0 396 182" data-background-color="#5d9096" preserveAspectRatio="xMidYMid meet" height="689" width="1500" xmlns="http://www.w3.org/2000/svg" xmlns:xlink="http://www.w3.org/1999/xlink"><g id="tight-bounds" transform="matrix(1,0,0,1,0.2400000000000091,0.254445493677423)"><svg viewBox="0 0 395.52 181.49110901264515" height="181.49110901264515" width="395.52"><g><svg viewBox="0 0 395.52000000000004 181.49110901264518" height="181.49110901264515" width="395.52"><g transform="matrix(1,0,0,1,0,112.16878643200002)"><svg viewBox="0 0 395.52000000000004 69.32232258064516" height="69.32232258064516" width="395.52000000000004"><g id="textblocktransform"><svg viewBox="0 0 395.52000000000004 69.32232258064516" height="69.32232258064516" width="395.52000000000004" id="textblock"><g><svg viewBox="0 0 395.52000000000004 69.32232258064516" height="69.32232258064516" width="395.52000000000004"><g transform="matrix(1,0,0,1,0,0)"><svg width="395.52000000000004" viewBox="2.08 -33.33 193.73 33.959999999999994" height="69.32232258064516" data-palette-color="#f9d1d1"><g class="wordmark-text-0" data-fill-palette-color="primary" id="text-0"><path d="M18.4 0.63L18.4 0.63Q15.03 0.63 12.07-0.64 9.1-1.91 6.86-4.13 4.62-6.35 3.35-9.31 2.08-12.26 2.08-15.63L2.08-15.63Q2.08-18.99 3.35-21.94 4.62-24.9 6.86-27.12 9.1-29.34 12.07-30.61 15.03-31.88 18.4-31.88L18.4-31.88Q21.74-31.88 24.65-30.64 27.57-29.41 29.79-27.26L29.79-27.26 28.65-22.47Q27.05-25.03 24.36-26.58 21.67-28.13 18.4-28.13L18.4-28.13Q14.97-28.13 12.2-26.44 9.44-24.76 7.81-21.93 6.18-19.1 6.18-15.63L6.18-15.63Q6.18-12.19 7.81-9.34 9.44-6.49 12.2-4.81 14.97-3.13 18.4-3.13L18.4-3.13Q21.7-3.13 24.38-4.69 27.05-6.25 28.65-8.78L28.65-8.78 29.79-3.99Q27.57-1.88 24.65-0.63 21.74 0.63 18.4 0.63ZM38.33 0L34.58 0 34.58-33.33 38.33-33.33 38.33-17.88Q39.51-19.51 41.25-20.38 42.98-21.25 44.96-21.25L44.96-21.25Q47.19-21.25 49.08-20.16 50.97-19.06 52.15-17 53.33-14.93 53.33-11.98L53.33-11.98 53.33 0 49.58 0 49.58-11.46Q49.58-13.92 48.11-15.82 46.63-17.71 43.96-17.71L43.96-17.71Q41.77-17.71 40.05-16.13 38.33-14.55 38.33-11.56L38.33-11.56 38.33 0ZM69.51 0.42L69.51 0.42Q66.25 0.42 63.66-1.04 61.07-2.5 59.6-5.02 58.12-7.53 58.12-10.63L58.12-10.63Q58.12-13.58 59.54-15.99 60.97-18.4 63.38-19.83 65.79-21.25 68.71-21.25L68.71-21.25Q71.59-21.25 73.99-19.88 76.38-18.51 77.81-16.18 79.23-13.85 79.23-10.9L79.23-10.9 79.23-9.38 65.62-9.38Q64.72-9.38 63.78-9.44 62.84-9.51 61.94-9.65L61.94-9.65Q62.32-6.88 64.46-5 66.59-3.13 69.54-3.13L69.54-3.13Q71.52-3.13 73.22-4.03 74.93-4.93 75.97-6.42L75.97-6.42 77.01-2.15Q75.52-0.94 73.59-0.26 71.66 0.42 69.51 0.42ZM61.84-12.19L61.84-12.19Q63.71-12.5 65.62-12.5L65.62-12.5 72.53-12.5Q73.29-12.5 74.04-12.45 74.79-12.4 75.55-12.33L75.55-12.33Q75.06-14.76 73.12-16.34 71.18-17.92 68.71-17.92L68.71-17.92Q66.18-17.92 64.27-16.23 62.36-14.55 61.84-12.19ZM89.61 0.42L89.61 0.42Q88.01 0.42 86.19-0.19 84.37-0.8 83.05-2.22L83.05-2.22 84.09-6.32Q85.06-4.69 86.59-3.73 88.12-2.78 89.85-2.78L89.85-2.78Q91.52-2.78 92.35-3.59 93.19-4.41 93.19-5.59L93.19-5.59Q93.19-6.94 92.3-7.57 91.42-8.19 90.72-8.44L90.72-8.44 87.91-9.51Q87.15-9.83 86.07-10.43 84.99-11.04 84.19-12.19 83.4-13.33 83.4-15.17L83.4-15.17Q83.4-16.84 84.19-18.23 84.99-19.62 86.45-20.43 87.91-21.25 89.89-21.25L89.89-21.25Q91.45-21.25 93.15-20.69 94.85-20.14 96.03-18.82L96.03-18.82 94.99-14.72Q94.16-16.25 92.74-17.15 91.31-18.06 89.78-18.06L89.78-18.06Q88.36-18.06 87.54-17.26 86.73-16.46 86.73-15.42L86.73-15.42Q86.73-14.58 87.28-13.92 87.84-13.26 88.95-12.85L88.95-12.85 91.76-11.77Q92.53-11.49 93.66-10.87 94.78-10.24 95.65-9.06 96.52-7.88 96.52-5.87L96.52-5.87Q96.52-3.06 94.56-1.32 92.6 0.42 89.61 0.42ZM107.32 0.42L107.32 0.42Q105.72 0.42 103.9-0.19 102.07-0.8 100.75-2.22L100.75-2.22 101.8-6.32Q102.77-4.69 104.3-3.73 105.82-2.78 107.56-2.78L107.56-2.78Q109.23-2.78 110.06-3.59 110.89-4.41 110.89-5.59L110.89-5.59Q110.89-6.94 110.01-7.57 109.12-8.19 108.43-8.44L108.43-8.44 105.62-9.51Q104.85-9.83 103.77-10.43 102.7-11.04 101.9-12.19 101.1-13.33 101.1-15.17L101.1-15.17Q101.1-16.84 101.9-18.23 102.7-19.62 104.16-20.43 105.62-21.25 107.59-21.25L107.59-21.25Q109.16-21.25 110.86-20.69 112.56-20.14 113.74-18.82L113.74-18.82 112.7-14.72Q111.87-16.25 110.44-17.15 109.02-18.06 107.49-18.06L107.49-18.06Q106.07-18.06 105.25-17.26 104.43-16.46 104.43-15.42L104.43-15.42Q104.43-14.58 104.99-13.92 105.55-13.26 106.66-12.85L106.66-12.85 109.47-11.77Q110.23-11.49 111.36-10.87 112.49-10.24 113.36-9.06 114.23-7.88 114.23-5.87L114.23-5.87Q114.23-3.06 112.26-1.32 110.3 0.42 107.32 0.42ZM129.43 0L120.68 0 120.68-31.25 129.43-31.25Q132.42-31.25 134.17-30.07 135.93-28.89 136.69-27.2 137.45-25.52 137.45-24.03L137.45-24.03Q137.45-22.33 136.67-20.92 135.89-19.51 134.57-18.61L134.57-18.61Q137.11-17.47 138.69-15.17 140.27-12.88 140.27-9.97L140.27-9.97Q140.27-7.5 139.03-5.21 137.8-2.92 135.39-1.46 132.97 0 129.43 0L129.43 0ZM124.64-16.67L124.64-3.54 129.15-3.54Q131.72-3.54 133.29-4.55 134.85-5.56 135.58-7.08 136.31-8.61 136.31-10.1L136.31-10.1Q136.31-11.56 135.61-13.09 134.92-14.62 133.36-15.64 131.79-16.67 129.15-16.67L129.15-16.67 124.64-16.67ZM124.64-27.71L124.64-20 129.12-20Q131.17-20 132.44-20.99 133.7-21.98 133.7-23.82L133.7-23.82Q133.7-25.73 132.45-26.72 131.2-27.71 129.26-27.71L129.26-27.71 124.64-27.71ZM149.43 0L145.68 0 145.68-33.33 149.43-33.33 149.43 0ZM159.84 0L156.09 0 156.09-20.83 159.84-20.83 159.84 0ZM157.97-24.58L157.97-24.58Q156.93-24.58 156.2-25.31 155.47-26.04 155.47-27.08L155.47-27.08Q155.47-28.16 156.2-28.87 156.93-29.58 157.97-29.58L157.97-29.58Q159.05-29.58 159.76-28.87 160.47-28.16 160.47-27.08L160.47-27.08Q160.47-26.04 159.76-25.31 159.05-24.58 157.97-24.58ZM172.69 0L168.94 0 168.94-17.71 164.22-17.71 164.22-20.83 169.04-20.83 169.04-27.78 172.58-27.78 172.58-20.83 177.76-20.83 177.76-17.71 172.69-17.71 172.69 0ZM195.26 0L180.19 0 190.05-17.5 180.81-17.5 180.81-20.83 195.81-20.83 185.95-3.33 195.26-3.33 195.26 0Z" fill="#f9d1d1" data-fill-palette-color="primary"></path></g></svg></g></svg></g></svg></g></svg></g><g transform="matrix(1,0,0,1,167.50160217235378,0)"><svg viewBox="0 0 60.51679565529245 95.80344980645162" height="95.80344980645162" width="60.51679565529245"><g><svg xmlns="http://www.w3.org/2000/svg" xmlns:xlink="http://www.w3.org/1999/xlink" version="1.1" x="0" y="0" viewBox="18.5 0.133 62.999000487797005 99.733" enable-background="new 0 0 100 100" xml:space="preserve" height="95.80344980645162" width="60.51679565529245" class="icon-icon-0" data-fill-palette-color="accent" id="icon-0"><g fill="#d82832" data-fill-palette-color="accent"><path d="M77.393 82.291H74.198A2.168 2.168 0 0 0 74.198 77.955H72.522C72.139 73.923 72.917 70.47 73.661 67.49 74.677 63.425 78.134 53.734 78.743 51.701S83.485 39.504 77.794 24.392 56.854 6.368 56.854 6.368L50.144 0.133 50.11 6.3C45.893 6.91 44.317 7.926 44.317 7.926L45.334 11.789 35.983 14.296 35.373 18.226 19.652 32.795C20.669 36.388 18.5 39.369 18.5 39.369L22.092 43.502C23.042 43.298 24.803 43.908 24.803 43.908 27.919 45.263 32.934 43.908 35.374 41.063 37.812 38.217 40.796 38.895 44.183 40.25 47.572 41.604 54.078 39.978 54.078 39.978S40.659 53.397 36.05 63.425C33.488 69.002 33.525 74.326 34.061 77.955H31.973A2.168 2.168 0 0 0 31.973 82.291H28.777A4.11 4.11 0 0 0 24.668 86.399V95.758A4.11 4.11 0 0 0 28.777 99.866H77.392A4.11 4.11 0 0 0 81.499 95.758V86.399A4.106 4.106 0 0 0 77.393 82.291" fill="#d82832" data-fill-palette-color="accent"></path></g></svg></g></svg></g><g></g></svg></g><defs></defs></svg><rect width="395.52" height="181.49110901264515" fill="none" stroke="none" visibility="hidden"></rect></g></svg></g></svg>